<?xml version="1.0" encoding="UTF-8"?>
<svg version="1.1" xmlns="http://www.w3.org/2000/svg" width="192" height="192">
<path d="M0 0 C3.62332637 3.0421656 6.98210599 6.30164911 10.30664062 9.66552734 C11.03367188 10.38224609 11.76070312 11.09896484 12.50976562 11.83740234 C31.24485054 31.45760938 37.13889796 57.11361744 36.58789062 83.46630859 C35.70117844 108.01715225 24.55784889 129.6160876 7.30664062 146.66552734 C6.2315625 147.75607422 6.2315625 147.75607422 5.13476562 148.86865234 C-14.48544141 167.60373726 -40.14144947 173.49778468 -66.49414062 172.94677734 C-91.04498428 172.06006516 -112.64391963 160.9167356 -129.69335938 143.66552734 C-130.42039063 142.94880859 -131.14742187 142.23208984 -131.89648438 141.49365234 C-150.63156929 121.87344531 -156.52561671 96.21743724 -155.97460938 69.86474609 C-155.08789719 45.31390244 -143.94456764 23.71496709 -126.69335938 6.66552734 C-125.97664063 5.93849609 -125.25992188 5.21146484 -124.52148438 4.46240234 C-91.50139057 -27.06806317 -35.38905678 -27.8887809 0 0 Z " fill="#F03E2F" transform="translate(155.693359375,19.33447265625)"/>
<path d="M0 0 C1.20060734 0.83564284 2.38936118 1.68871384 3.5625 2.5625 C4.59375 3.284375 5.625 4.00625 6.6875 4.75 C13.54050715 10.72537408 16.20295353 19.09273071 18.5625 27.5625 C14.52181261 27.79570282 10.48285799 27.9372013 6.4375 28.0625 C4.72433594 28.16304687 4.72433594 28.16304687 2.9765625 28.265625 C-5.38669114 28.46011927 -5.38669114 28.46011927 -8.44042969 25.8515625 C-9.9921875 23.71875 -9.9921875 23.71875 -11.18701172 21.58789062 C-13.57766138 17.71580363 -17.17885405 15.8775797 -21.4375 14.5625 C-29.49224645 13.78679094 -37.80220047 13.30341074 -44.4375 18.5625 C-48.90176518 22.64682772 -50.06675319 25.80257148 -50.36181641 31.65551758 C-50.39927979 32.59947388 -50.39927979 32.59947388 -50.4375 33.5625 C-41.79702994 37.52358716 -33.2666836 40.02275606 -24 42.0625 C6.26125584 48.74459453 6.26125584 48.74459453 15.51171875 61.18359375 C20.12810565 69.1143097 21.31180183 77.62041674 19.5625 86.5625 C16.30092619 97.53522992 9.71898351 104.9075226 -0.1875 110.3125 C-15.15738195 117.18503671 -31.4310367 117.56257778 -47.0859375 112.8359375 C-51.97173139 110.9795636 -56.18638245 108.5812897 -60.4375 105.5625 C-61.345 104.964375 -62.2525 104.36625 -63.1875 103.75 C-69.56767372 97.54705333 -72.88328144 89.97639644 -75.4375 81.5625 C-75.4375 81.2325 -75.4375 80.9025 -75.4375 80.5625 C-71.23010571 80.32940336 -67.02437362 80.18782674 -62.8125 80.0625 C-61.62269531 79.99546875 -60.43289062 79.9284375 -59.20703125 79.859375 C-50.50722293 79.66496588 -50.50722293 79.66496588 -47.37475586 82.29321289 C-45.80078125 84.44140625 -45.80078125 84.44140625 -44.59106445 86.59204102 C-42.31550947 90.47902605 -38.6275889 92.1658037 -34.4375 93.5625 C-31.52701219 93.73810807 -28.66200631 93.83968869 -25.75 93.875 C-24.58307617 93.91850586 -24.58307617 93.91850586 -23.39257812 93.96289062 C-16.43900926 94.03828378 -11.25962751 92.08756145 -6.0625 87.4375 C-3.74396911 83.33548381 -3.15832475 79.17318548 -2.4375 74.5625 C-9.54228366 70.61322025 -16.40846596 68.24905198 -24.3125 66.4375 C-26.33072917 65.95572917 -28.34895833 65.47395833 -30.3671875 64.9921875 C-33.45964697 64.26319519 -36.55240689 63.53564206 -39.64624023 62.8125 C-51.88464811 59.87247848 -61.83132729 55.48846832 -69.25 45 C-73.14271995 37.00968011 -73.92015347 28.27912265 -71.6796875 19.640625 C-67.33140763 8.34194502 -60.69404465 1.85741636 -49.96484375 -3.359375 C-49.13082031 -3.71515625 -48.29679687 -4.0709375 -47.4375 -4.4375 C-46.15746094 -4.99050781 -46.15746094 -4.99050781 -44.8515625 -5.5546875 C-30.43279477 -9.28311028 -12.83739294 -7.55422005 0 0 Z " fill="#FEFCFC" transform="translate(123.4375,41.4375)"/>
<path d="M0 0 C6.87979002 3.53817773 10.59203236 8.77609709 13 16 C13.9769351 19.4611415 14.55348362 22.41965283 14 26 C8.43031466 34.18047535 -3.27599925 38.42228674 -12.54296875 40.4921875 C-29.05547107 42.91775281 -45.13843268 40.84333088 -59 31 C-59.9075 30.401875 -60.815 29.80375 -61.75 29.1875 C-68.13017372 22.98455333 -71.44578144 15.41389644 -74 7 C-74 6.67 -74 6.34 -74 6 C-69.79260571 5.76690336 -65.58687362 5.62532674 -61.375 5.5 C-60.18519531 5.43296875 -58.99539062 5.3659375 -57.76953125 5.296875 C-49.06972293 5.10246588 -49.06972293 5.10246588 -45.93725586 7.73071289 C-44.36328125 9.87890625 -44.36328125 9.87890625 -43.15356445 12.02954102 C-40.87800947 15.91652605 -37.1900889 17.6033037 -33 19 C-30.08951219 19.17560807 -27.22450631 19.27718869 -24.3125 19.3125 C-23.14557617 19.35600586 -23.14557617 19.35600586 -21.95507812 19.40039062 C-15.04254539 19.47533885 -9.80488043 17.57745769 -4.6875 12.875 C-2.30278988 8.81216053 -1.16446694 4.54318542 0 0 Z " fill="#F8AFA8" transform="translate(122,116)"/>
<path d="M0 0 C1.98461642 1.16785621 3.81458389 2.42224179 5.66015625 3.796875 C6.69140625 4.51875 7.72265625 5.240625 8.78515625 5.984375 C15.6381634 11.95974908 18.30060978 20.32710571 20.66015625 28.796875 C16.61946886 29.03007782 12.58051424 29.1715763 8.53515625 29.296875 C6.82199219 29.39742187 6.82199219 29.39742187 5.07421875 29.5 C-3.28903489 29.69449427 -3.28903489 29.69449427 -6.34277344 27.0859375 C-7.89453125 24.953125 -7.89453125 24.953125 -9.08935547 22.82226562 C-11.48000513 18.95017863 -15.0811978 17.1119547 -19.33984375 15.796875 C-27.38740199 15.02185819 -35.71378087 14.53210721 -42.33984375 19.796875 C-47.15106318 24.29431925 -48.40213779 28.49884987 -49.33984375 34.796875 C-55.37833126 31.77763125 -59.66002689 27.05806125 -62.15234375 20.796875 C-62.56370629 19.46825065 -62.96020317 18.13490894 -63.33984375 16.796875 C-63.75234375 15.641875 -64.16484375 14.486875 -64.58984375 13.296875 C-64.28942492 9.09101137 -63.51935391 8.489747 -60.52734375 5.671875 C-55.83718429 1.90221413 -50.89982629 -0.92255982 -45.33984375 -3.203125 C-44.06367187 -3.75226562 -44.06367187 -3.75226562 -42.76171875 -4.3125 C-29.18015668 -7.84742711 -12.44914043 -6.40122747 0 0 Z " fill="#F8AFA9" transform="translate(121.33984375,40.203125)"/>
</svg>
